<svg width="24" height="24" viewBox="0 0 24 24"  fill="currentColor" xmlns="http://www.w3.org/2000/svg">
<path opacity="0.4" fill-rule="evenodd" clip-rule="evenodd" d="M16.4 3.40039H7.6C4.7 3.40039 2.5 5.80039 2.5 8.90039V15.1004C2.5 16.7004 3.1 18.2004 4.1 19.2004C5 20.1004 6.2 20.6004 7.6 20.6004H16.4C17.7 20.6004 18.9 20.1004 19.9 19.2004C20.9 18.2004 21.5 16.7004 21.5 15.1004V8.90039C21.5 5.80039 19.3 3.40039 16.4 3.40039Z" fill="inherit"/>
<path fill-rule="evenodd" clip-rule="evenodd" d="M17.8001 9.79998L13.8001 13C13.3001 13.4 12.7001 13.6 12.0001 13.6C11.4001 13.6 10.8001 13.4 10.2001 13L6.20008 9.69998C5.90008 9.39998 5.80008 8.99998 6.10008 8.59998C6.40008 8.19998 6.80008 8.19998 7.20008 8.49998L11.2001 11.7C11.7001 12.1 12.4001 12.1 12.8001 11.7L16.8001 8.49998C17.1001 8.19998 17.6001 8.29998 17.9001 8.59998C18.2001 8.99998 18.1001 9.49998 17.8001 9.79998Z" fill="inherit"/>
</svg>
