<svg width="24" height="24" viewBox="0 0 24 24" fill="none" xmlns="http://www.w3.org/2000/svg">
<path opacity="0.4" fill-rule="evenodd" clip-rule="evenodd" d="M19.5598 11.0738C19.2198 10.3637 18.6398 9.78375 17.9198 9.43375C17.6998 9.33375 17.4698 9.25375 17.1998 9.20375C16.7998 9.13375 16.3198 9.10375 15.6998 9.10375C15.3998 9.09375 15.0698 9.09375 14.6998 9.09375H9.29984C8.92984 9.09375 8.59984 9.09375 8.29984 9.10375C7.67984 9.10375 7.19984 9.13375 6.79984 9.20375C6.52984 9.25375 6.29984 9.33375 6.07984 9.43375C5.35984 9.78375 4.77984 10.3637 4.43984 11.0838C4.08984 11.8038 4.08984 12.6337 4.08984 14.3038V16.4338C4.08984 18.1038 4.08984 18.9338 4.43984 19.6637C4.78984 20.3837 5.36984 20.9637 6.07984 21.2937C6.79984 21.6438 7.62984 21.6438 9.29984 21.6438H14.6998C16.3698 21.6438 17.1998 21.6438 17.9198 21.2937C18.6298 20.9637 19.2098 20.3837 19.5598 19.6637C19.9098 18.9338 19.9098 18.1038 19.9098 16.4338V14.3038C19.9098 12.6337 19.9098 11.8038 19.5598 11.0738Z" fill="black"/>
<path d="M17.1998 9.20547V7.48547C17.1698 4.64547 14.8398 2.35547 11.9998 2.35547H11.9398C9.10981 2.39547 6.8498 4.63547 6.7998 7.47547V9.20547C7.1998 9.13547 7.6798 9.10547 8.2998 9.10547V7.48547C8.3398 5.47547 9.9398 3.88547 11.9598 3.85547H11.9998C14.0198 3.85547 15.6698 5.48547 15.6998 7.49547V9.10547C16.3198 9.10547 16.7998 9.13547 17.1998 9.20547Z" fill="black"/>
<path d="M12.75 16.4356C12.75 16.8496 12.414 17.1856 12 17.1856C11.586 17.1856 11.25 16.8496 11.25 16.4356V14.2656C11.25 13.8516 11.586 13.5156 12 13.5156C12.414 13.5156 12.75 13.8516 12.75 14.2656V16.4356Z" fill="black"/>
</svg>
