<svg width="20" height="20" viewBox="0 0 20 20" fill="currentColor" xmlns="http://www.w3.org/2000/svg">
<path fill-rule="evenodd" clip-rule="evenodd" d="M12.866 12.864C12.72 13.01 12.528 13.084 12.336 13.084C12.143 13.084 11.952 13.01 11.805 12.864L9.999 11.057L8.198 12.858C7.905 13.151 7.43 13.151 7.137 12.858C6.845 12.565 6.845 12.091 7.137 11.798L8.938 9.997L7.136 8.194C6.843 7.901 6.843 7.427 7.136 7.134C7.429 6.841 7.903 6.841 8.196 7.134L9.998 8.936L11.8 7.135C12.093 6.842 12.567 6.842 12.86 7.135C13.153 7.427 13.153 7.902 12.86 8.195L11.059 9.997L12.866 11.803C13.159 12.096 13.159 12.571 12.866 12.864ZM10 0.5C4.762 0.5 0.5 4.761 0.5 10C0.5 15.238 4.762 19.5 10 19.5C15.238 19.5 19.5 15.238 19.5 10C19.5 4.761 15.238 0.5 10 0.5Z" fill="inherit"/>
</svg>
