<svg width="20" height="20" viewBox="0 0 20 20" fill="none" xmlns="http://www.w3.org/2000/svg">
<path d="M15.6912 6.03649L16.2712 7.04089C16.7158 7.81103 16.4508 8.79523 15.6815 9.23984C15.0969 9.57807 15.0969 10.4224 15.6815 10.7599C16.4516 11.2045 16.7158 12.1894 16.2712 12.9588L15.6912 13.964C15.2466 14.7341 14.2617 14.9975 13.4915 14.553C12.907 14.2155 12.1758 14.6375 12.1758 15.3127C12.1758 16.2018 11.455 16.9233 10.5658 16.9233H9.40576C8.51661 16.9233 7.79592 16.2018 7.79592 15.3127C7.79592 14.6375 7.06467 14.2155 6.47938 14.553C5.70924 14.9975 4.72504 14.7341 4.28047 13.964L3.70042 12.9588C3.25585 12.1894 3.51931 11.2045 4.28945 10.7599C4.87473 10.4224 4.87473 9.57807 4.28945 9.23984C3.51931 8.79523 3.25585 7.81103 3.70042 7.04089L4.28047 6.03649C4.72504 5.26634 5.70924 5.00214 6.47938 5.44671C7.06467 5.78501 7.79592 5.36289 7.79592 4.68704C7.79592 3.79789 8.51661 3.07715 9.40576 3.07715H10.5658C11.455 3.07715 12.1758 3.79789 12.1758 4.68704C12.1758 5.36289 12.9078 5.78501 13.4923 5.44671C14.2617 5.00214 15.2466 5.26634 15.6912 6.03649Z" stroke="#344054" stroke-width="1.38462" stroke-linecap="round" stroke-linejoin="round"/>
<path d="M12.4544 9.9997C12.4544 8.63454 11.3482 7.52832 9.98304 7.52832C8.61789 7.52832 7.51172 8.63454 7.51172 9.9997C7.51172 11.3649 8.61789 12.471 9.98304 12.471C11.3482 12.471 12.4544 11.3649 12.4544 9.9997Z" stroke="#344054" stroke-width="1.38462" stroke-linecap="round" stroke-linejoin="round"/>
</svg>
