<svg width="24" height="24" viewBox="0 0 24 24" fill="currentColor" xmlns="http://www.w3.org/2000/svg">
<path fill-rule="evenodd" clip-rule="evenodd" d="M18.7937 13.5098H16.1897C14.7017 13.5098 13.4917 14.7198 13.4917 16.2078V18.8118C13.4917 20.2998 14.7017 21.5098 16.1897 21.5098H18.7937C20.2817 21.5098 21.4917 20.2998 21.4917 18.8118V16.2078C21.4917 14.7198 20.2817 13.5098 18.7937 13.5098Z" fill="inherit"/>
<path fill-rule="evenodd" clip-rule="evenodd" d="M14.2222 7.25623H16.7422V9.77023C16.7422 10.1842 17.0772 10.5202 17.4922 10.5202C17.9062 10.5202 18.2422 10.1842 18.2422 9.77023V7.25623H20.7582C21.1722 7.25623 21.5082 6.92023 21.5082 6.50623C21.5082 6.09223 21.1722 5.75623 20.7582 5.75623H18.2422V3.24023C18.2422 2.82623 17.9062 2.49023 17.4922 2.49023C17.0772 2.49023 16.7422 2.82623 16.7422 3.24023V5.75623H14.2222C13.8082 5.75623 13.4722 6.09223 13.4722 6.50623C13.4722 6.92023 13.8082 7.25623 14.2222 7.25623Z" fill="inherit"/>
<path fill-rule="evenodd" clip-rule="evenodd" d="M7.7937 2.50977H5.1897C3.7017 2.50977 2.4917 3.71977 2.4917 5.20777V7.81177C2.4917 9.29977 3.7017 10.5098 5.1897 10.5098H7.7937C9.2817 10.5098 10.4917 9.29977 10.4917 7.81177V5.20777C10.4917 3.71977 9.2817 2.50977 7.7937 2.50977Z" fill="inherit"/>
<path fill-rule="evenodd" clip-rule="evenodd" d="M7.7937 13.5098H5.1897C3.7017 13.5098 2.4917 14.7198 2.4917 16.2078V18.8118C2.4917 20.2998 3.7017 21.5098 5.1897 21.5098H7.7937C9.2817 21.5098 10.4917 20.2998 10.4917 18.8118V16.2078C10.4917 14.7198 9.2817 13.5098 7.7937 13.5098Z" fill="inherit"/>
</svg>
