<svg width="20" height="20" viewBox="0 0 20 20" fill="none" xmlns="http://www.w3.org/2000/svg">
<path d="M4.5165 15.8034C3.57205 15.8034 3.00134 15.1247 2.96094 14.1791C2.96094 12.2546 4.84142 11.5907 7.67477 11.5684C10.5132 11.5982 12.3987 12.2621 12.3886 14.1791C12.3432 15.1247 11.7758 15.8034 10.833 15.8034H4.5165Z" stroke="inherit" stroke-width="1.38462" stroke-miterlimit="10"/>
<path d="M14.3422 15.2425H15.5467C16.3113 15.2425 16.7715 14.692 16.8083 13.9251C16.8155 12.5738 15.6613 11.9903 13.8477 11.8447" stroke="inherit" stroke-width="1.38462" stroke-miterlimit="10" stroke-linecap="round"/>
<path d="M7.66209 9.15424C9.03096 9.15424 10.1406 8.0446 10.1406 6.67577C10.1406 5.30693 9.03096 4.19727 7.66209 4.19727C6.29326 4.19727 5.18359 5.30693 5.18359 6.67577C5.18359 8.0446 6.29326 9.15424 7.66209 9.15424Z" stroke="inherit" stroke-width="1.38462" stroke-miterlimit="10"/>
<path d="M13.8331 9.04607C14.7247 9.04607 15.4474 8.32329 15.4474 7.43171C15.4474 6.54014 14.7247 5.81738 13.8331 5.81738C12.9415 5.81738 12.2188 6.54014 12.2188 7.43171C12.2188 8.32329 12.9415 9.04607 13.8331 9.04607Z" stroke="inherit" stroke-width="1.38462" stroke-miterlimit="10"/>
</svg>
