<svg width="20" height="20" viewBox="0 0 20 20" fill="none" xmlns="http://www.w3.org/2000/svg">
<path d="M5.44018 16.5374C4.2717 16.5374 3.56561 15.7792 3.51562 14.7232C3.51562 13.5275 4.2356 12.4995 5.47799 12.0561C6.46894 11.7025 7.79219 12.5256 9.34766 12.5146C10.901 12.5293 12.2237 11.7073 13.2147 12.059C14.4642 12.5024 15.1866 13.5292 15.1796 14.7232C15.1233 15.7792 14.4214 16.5374 13.255 16.5374H5.44018Z" stroke="#344054" stroke-width="1.38462" stroke-miterlimit="10"/>
<path d="M9.35283 9.71445C11.0794 9.71445 12.4791 8.3148 12.4791 6.5882C12.4791 4.8616 11.0794 3.46191 9.35283 3.46191C7.62625 3.46191 6.22656 4.8616 6.22656 6.5882C6.22656 8.3148 7.62625 9.71445 9.35283 9.71445Z" stroke="#344054" stroke-width="1.38462" stroke-miterlimit="10"/>
</svg>
